<svg width="192" height="88" viewBox="0 0 192 88" fill="none" xmlns="http://www.w3.org/2000/svg">
<ellipse cx="33.8751" cy="7.04274" rx="7.04271" ry="7.04274" fill="#3774AA"/>
<path d="M23.93 21.2445C22.2398 23.2164 22.5215 29.1089 22.8736 31.8086C32.4517 25.3292 41.1846 29.1089 44.3539 31.8086C46.6075 28.1463 45.2929 23.2399 44.3539 21.2445C35.0575 13.3566 26.8645 17.9578 23.93 21.2445Z" fill="url(#paint0_linear_1824_10301)"/>
<path d="M8.02351 87.3166L4.99996 62.8906C15.9001 60.3418 25.1716 53.5235 36.4426 43.4206C45.5261 35.2786 45.0131 25.7206 43.3827 20.4106C52.0469 27.4906 49.4812 39.6446 47.1522 44.8366C40.3237 60.0586 20.3719 80.9446 8.02351 87.3166Z" fill="url(#paint1_linear_1824_10301)"/>
<path d="M59.7264 87.3166L62.7499 62.8905C51.8498 60.3417 42.5783 53.5234 31.3073 43.4205C22.2238 35.2785 23.0889 25.7205 24.7193 20.4105C16.0551 27.4905 18.2686 39.6445 20.5977 44.8365C27.4262 60.0585 47.3779 80.9446 59.7264 87.3166Z" fill="#FA6F08"/>
<path d="M76.574 54.0423C75.422 54.0423 74.47 53.8743 73.718 53.5383C72.966 53.1863 72.366 52.7063 71.918 52.0983C71.47 51.4903 71.134 50.7783 70.91 49.9623C70.686 49.1463 70.534 48.2663 70.454 47.3223H69.326V53.6583H64.07V37.1463H70.862C73.486 37.1463 75.374 37.6103 76.526 38.5383C77.694 39.4503 78.278 40.6903 78.278 42.2583C78.278 43.2023 78.022 44.0503 77.51 44.8023C76.998 45.5383 76.174 46.1543 75.038 46.6503C75.102 47.0023 75.158 47.2903 75.206 47.5143C75.254 47.7383 75.326 47.9863 75.422 48.2583C75.63 48.8343 75.886 49.2343 76.19 49.4583C76.51 49.6823 76.942 49.7943 77.486 49.7943C77.838 49.7943 78.19 49.7463 78.542 49.6503L78.83 53.5863C78.51 53.7143 78.166 53.8183 77.798 53.8983C77.446 53.9943 77.038 54.0423 76.574 54.0423ZM69.326 44.0343H70.238C71.422 44.0343 72.254 43.9063 72.734 43.6503C73.23 43.3783 73.478 42.9223 73.478 42.2823C73.478 41.7383 73.278 41.3463 72.878 41.1063C72.478 40.8503 71.846 40.7223 70.982 40.7223H69.326V44.0343ZM79.0648 53.6583L83.6248 37.1463H91.4008L96.1768 53.6583H90.2968L89.6728 50.4903H85.4008L84.7048 53.6583H79.0648ZM85.9048 47.5383H89.0968L87.5368 40.3143L85.9048 47.5383ZM97.4684 53.6583V37.1463H108.844V40.7943H102.628V44.1303H108.388V47.3463H102.628V53.6583H97.4684ZM110.804 53.6583V37.1463H116.228V53.6583H110.804ZM133.579 57.9783L127.507 53.9943C127.315 54.0263 127.139 54.0423 126.979 54.0423C125.251 54.0423 123.723 53.6743 122.395 52.9383C121.067 52.2023 120.027 51.1863 119.275 49.8903C118.539 48.5943 118.171 47.1063 118.171 45.4263C118.171 43.7303 118.539 42.2343 119.275 40.9383C120.027 39.6423 121.067 38.6263 122.395 37.8903C123.723 37.1543 125.259 36.7863 127.003 36.7863C128.747 36.7863 130.283 37.1543 131.611 37.8903C132.939 38.6103 133.971 39.6183 134.707 40.9143C135.459 42.2103 135.835 43.7143 135.835 45.4263C135.835 46.7383 135.571 47.9863 135.043 49.1703C134.531 50.3383 133.771 51.3463 132.763 52.1943L137.251 55.1223L133.579 57.9783ZM127.003 49.6743C128.011 49.6743 128.835 49.2823 129.475 48.4983C130.131 47.7143 130.459 46.6823 130.459 45.4023C130.459 44.5383 130.307 43.7783 130.003 43.1223C129.715 42.4663 129.307 41.9543 128.779 41.5863C128.267 41.2023 127.667 41.0103 126.979 41.0103C125.971 41.0103 125.147 41.4183 124.507 42.2343C123.867 43.0343 123.547 44.0903 123.547 45.4023C123.547 46.6823 123.867 47.7143 124.507 48.4983C125.147 49.2823 125.979 49.6743 127.003 49.6743Z" fill="#3774AA"/>
<defs>
<linearGradient id="paint0_linear_1824_10301" x1="22.6065" y1="24.3489" x2="45.5982" y2="24.3489" gradientUnits="userSpaceOnUse">
<stop stop-color="#923552"/>
<stop offset="1" stop-color="#E36218"/>
</linearGradient>
<linearGradient id="paint1_linear_1824_10301" x1="54.6511" y1="34.8482" x2="-4.42013" y2="86.892" gradientUnits="userSpaceOnUse">
<stop stop-color="#FA6F08"/>
<stop offset="0.485" stop-color="#9B394D"/>
<stop offset="1" stop-color="#FA6F08"/>
</linearGradient>
</defs>
</svg>
